# xmcd
#
# Track frame offsets:
#	150
#	16099
#	37301
#	49609
#	74307
#	86351
#	100449
#	114466
#	126860
#	138019
#	163986
#	177153
#	190240
#	205416
#	217622
#	229755
#	244045
#
# Disc length: 3501 seconds
#
# Revision: 1
# Processed by: cddbd v1.5.2PL0 Copyright (c) Steve Scherf et al.
# Submitted via: EasyCDDAExtractor 16.0.8.2
#
DISCID=e70dab11
DTITLE=Άνευ ερμηνευτού - Σόλο μπουζούκι 3
DYEAR=2014
DGENRE=Οργανική μπουζούκι
TTITLE0=Ποτέ την Κυριακή [Χ. Λεμονόπουλος, μουσ. Μ. Χατζιδάκις]
TTITLE1=Το μινόρε της Αθήνας [Θ.Πολυκανδριώτης κ Επόμενοι, μουσ.ιδίου]
TTITLE2=Για λαϊκούς δεξιοτέχνες [Χρ. Νικολόπουλος, μουσ. ιδίου]
TTITLE3=Άρωμα ψυχής [Χρ. Κωνσταντίνου, μουσ. ιδίου]
TTITLE4=Σόλο σέρβικο του Βασ. Τσιτσάνη [Γρ. Βασιλάς κ Πυρήνας]
TTITLE5=Το ζεϊμπέκικο της Ευδοκίας [Βαγγ. Λιόλιος, μουσ. Μ. Λοΐζος]
TTITLE6=Στου λουτρού τη χώρα [Σπ. Ιωαννίδης, μουσ. ιδίου]
TTITLE7=Ρομάντζα [Βαγγ. Τρίγκας, μουσ. ιδίου]
TTITLE8=Διαβολικές πενιές [Ά. Κούκος-Βαγγ. Μαχαιράς, μουσ.Γ.Ζαμπέτας]
TTITLE9=Δυό μπουζούκια (Το μπ. στον καθρέφτη)[Θαν. Πολυκανδριώτης]
TTITLE10=Ζεϊμπέκικος χορός [Κώστας Παπαδόπουλος, μουσ. ιδίου]
TTITLE11=Ζήλια μου [Χρ. Νικολόπουλος, μουσ. ιδίου]
TTITLE12=Αέρηδες [Λάκης Ορφανίδης, μουσ. ιδίου]
TTITLE13=Του Χρήστου [Δημ. Λίβανος, μουσ. ιδίου]
TTITLE14=Τσιφτετέλι ανατολίτικο [Μαν. Χιώτης, μουσ. ιδίου]
TTITLE15=Χασάπικο πολίτικο [Γιάννης Παπαϊωάννου, μουσ. ιδίου]
TTITLE16=Το μινόρε του τεκέ [Ιωάν. Χαλκιάς ή Jack Gregory, μουσ. ιδίου]
EXTD=
EXTT0=
EXTT1=
EXTT2=
EXTT3=
EXTT4=
EXTT5=
EXTT6=
EXTT7=
EXTT8=
EXTT9=
EXTT10=
EXTT11=
EXTT12=
EXTT13=
EXTT14=
EXTT15=
EXTT16=
PLAYORDER=
